<?xml version="1.0" encoding="UTF-8"?>
<svg version="1.1" viewBox="0 0 896.15 505.53" xmlns="http://www.w3.org/2000/svg">
 <g transform="translate(45.308 -255.02)">
  <path d="m372.28 293.34c-1.1807 0.0335-2.5875 0.65-3.8125 1.875-1.8 1.8-3.125 2.1125-7.125 1.8125-2.7-0.1-5.0875 0.0875-5.1875 0.6875-0.2 0.6-3.1 0.9125-6.5 0.8125-5.2-0.2-6.4062 0.0875-7.4062 1.6875-1.5 2.3-3.3062 2.7-2.4062 0.5 0.7-1.8-3.3938-2.1062-5.0938-0.40625-0.7 0.7-1.7062 0.825-2.9062 0.125-1.1-0.5-4.7812-0.825-8.2812-0.625-4.8 0.2-6.8938 0.80625-8.5938 2.4062-1.2 1.1-2.625 2.0125-3.125 1.8125-0.5-0.1-1.975 0.3875-3.375 1.1875s-6.1 1.7-10.5 2l-8 0.5v2.8125c0.1 2.8-0.125 2.8812-3.625 2.2812-3.4-0.5-3.675-0.38125-4.375 2.2188-0.6 2.6-0.725 2.5875-2.125 0.6875-1.1-1.5-1.7875-1.7062-3.1875-0.90625-0.9 0.6-1.6875 1.7-1.6875 2.5 0 1.7-3.4125 3.6188-7.3125 4.2188-3.7 0.5-11.188 3.6812-11.188 4.7812 0 0.5-1.5188 1.6-3.2188 2.5-1.8 0.9-3.4812 2.0062-3.7812 2.4062s-2.1 1.7062-4 2.9062c-1.9 1.1-3.4188 2.2938-3.2188 2.5938 0.7 1.6-0.18125 2.4938-3.2812 3.0938-1.9 0.3-4.5125 1.7-5.8125 3-1.2 1.3-3.0875 2.4062-4.1875 2.4062s-3.1062 1.2-4.4062 2.5c-1.3 1.4-3.0938 2.5-4.0938 2.5s-2.325 0.69375-3.125 1.5938c-0.7 0.9-2.9938 2.325-5.0938 3.125s-3.7812 2.0812-3.7812 2.7812-0.925 1.5125-2.125 1.8125c-1.1 0.3-2.4938 1.9-3.0938 3.5s-2.2875 3.3938-3.6875 4.0938c-5.4 2.5-7.1125 3.6-6.8125 4.5 0.4 1.1-7.9875 7.0938-11.188 8.0938-1.3 0.4-1.7062 1.2-1.4062 2.5 0.4 1.5 0 2-1.5 2-1.2 0-2.7062 0.90625-3.4062 1.9062s-3.2875 2.8875-5.6875 4.1875c-2.9 1.5-4.8188 3.325-5.7188 5.625-1.2 2.8-1.8812 3.2812-4.7812 3.2812-2.2 0-4.5062 0.9-6.4062 2.5-1.7 1.4-3.7875 2.5-4.6875 2.5-1.4 0-1.6188 0.60625-1.2188 2.9062 0.6 3-1.5062 5.2-2.9062 3-0.8-1.3-7.5812-0.3875-10.281 1.3125-2.2 1.4-3.4 4.475-2 5.375 2.1 1.2 0.5875 2.1188-3.8125 2.2188-11.9 0.2-12.794 0.50625-13.094 3.4062-0.2 1.6-0.80625 2.7812-1.4062 2.7812s-2.1062 1.2188-3.4062 2.7188-3.3938 2.7812-4.5938 2.7812c-1.3 0.1-3.2938 0.70625-4.5938 1.4062-2.1 1.1-2.0875 1.2938-0.6875 4.0938 0.9 1.7 1.3812 3.0938 1.2812 3.0938-0.2 0.1-4.6938 0.30625-10.094 0.40625-6.5 0.1-10.2 0.6-11 1.5-0.9 1-0.90625 1.0938 0.09375 0.59375 0.6-0.4 1.2188-0.1875 1.2188 0.3125v1.8125c0 0.5-0.31875 0.78125-0.71875 0.78125-0.5 0-1.1812 0.29375-1.7812 0.59375-1 0.7-11.4 2.3062-15 2.4062-1.3 0-2.725 1.4125-4.125 4.3125-2.3 4.8-7.8938 8.5938-10.594 7.0938-1.3-0.7-2.5-0.10625-5 2.5938l-3.2812 3.5-4.3125-1.5c-2.4-0.9-4.8125-1.3-5.3125-1-1.8 1.2-0.875 3.0125 2.125 4.3125 1.6 0.8 3 1.9812 3 2.7812 0 1.8-5.9 1.925-8.5 0.125-3.1-2.1-6.5125-2.725-5.8125-1.125 0.3 0.8 0.90625 1.5 1.4062 1.5 4.6 0.7 4.8812 1.4125 4.2812 9.8125l-0.5 7.8125 3.5 0.6875c2.8 0.5 3.725 1.3 4.625 4 0.7 2.1 1.8875 3.6 3.1875 4 2.1 0.5 2.1125 0.59375 0.3125 2.5938-2.8 3.1-6.025 2.6188-7.625-1.2812-1.3-3.1-1.4812-3.625-1.7812-5.625-0.5-3.7-11.394-10-17.094-10-5.5 0.1-6.9125 0.70625-6.3125 2.9062 0.3 1.1 0.90625 2 1.4062 2s0.90625 0.49375 0.90625 1.0938c0 0.5-1.0125 0.91875-2.3125 0.71875-1.7-0.2-2.1875 0.19375-2.1875 2.0938 0 2.1 0.8 2.5875 6.5 4.1875 3.5 0.9 6.7875 1.5125 7.1875 1.3125 0.3-0.2 0.9125-6e-3 1.3125 0.59375 0.8 1.3 6.5 1.3 6.5 0 0-0.6 0.5-1 1-1 0.6 0 1 0.9 1 2 0 1 0.7 2.3125 1.5 2.8125 0.9 0.4 1.675 2.0938 1.875 3.5938 0.4 3.8 2.8125 5.0875 6.8125 3.6875 4.3-1.5 7.8062-1.3938 8.4062 0.40625 0.4 0.8 1.5812 1.5 2.7812 1.5 2.2 0 4.625 1.7125 4.625 3.3125 0 1.1-10.1-0.10625-11.5-1.4062-1.1-1.1-5.5-1.1938-5.5-0.0937 0 1.2 5.5812 4.1875 7.7812 4.1875 2.9 0 3.7 1.8188 1 2.2188-3.3 0.4-3.3 3.0875 0 6.6875 2.3 2.6 3.6938 3.2125 7.0938 3.3125 3.9 0 5.4062 1.0938 2.9062 2.0938-2.8 1 3.6188 2.1875 9.2188 1.6875 3.0858-0.30689 5.6271-0.24921 8.375-1.0625 4.5975-1.2099 8.4747-1.4447 15.25-0.71875 6.7753 0.72592 5.5616-1.7044 4.5938-3.1562-0.9679-1.4518-3.3919-2.9134-4.8438-2.1875s-2.1955-0.7196-2.4375-1.6875 0.98771-1.682-4.0938-4.3438c-5.0815-2.6617 1.4481-2.9286 4.5938-1.7188 2.3777 0.9145 6.8333 1.4198 12 3.2812 0.03689 8e-3 0.05522 0.0222 0.09375 0.0313 1.9523 0.45586 5.9688 1.7875 8.9688 3.0625 2.5 1 3.5875 1.0062 5.6875-0.0937 2.7-1.4 6.4875-1.1062 8.1875 0.59375 0.5 0.5 2.7188 1 4.7188 1 2.8 0 4.2938-0.60625 5.5938-2.4062 1.4-1.8 2.2938-2.2 3.5938-1.5 1 0.6 3.1062 0.40625 5.9062-0.59375 2.4-0.8 5.7062-1.5 7.4062-1.5 1.8 0 3.8062-0.8 4.9062-2 1-1.1 3.075-1.9938 4.875-2.0938 2.9 0 2.9062-0.10625 0.90625-0.90625-1.3-0.5-2.2812-1.4062-2.2812-1.9062s-0.9-1.2938-2-1.5938c-1.1-0.4-3.3188-1.7938-4.7188-3.0938-1.8-1.7-3.4062-2.3-4.9062-2-1.6 0.4-2.2875 0.0937-2.6875-1.4062-0.3-1.1-1.2875-2-2.1875-2s-3.3062-1.4-5.4062-3c-2.1-1.7-5.4062-3.4938-7.4062-4.0938-2.1-0.5-3.6875-1.4062-3.6875-1.9062 0-1.4 1.2938-1.2 4.5938 0.5 1.6 0.8 3.8875 1.5 5.1875 1.5 1.2 0 2.2188 0.40625 2.2188 0.90625s1.6812 1.1938 3.7812 1.5938c2 0.4 4.2188 1.1 4.7188 1.5 0.6 0.5 3.6812 1.3125 6.7812 1.8125 4.3 0.7 6.4125 0.59375 8.3125-0.40625 3.4-1.8 3.4062-1.8 3.4062 1.5 0 3.6 1.3 4.5875 7.5 5.6875 7.6 1.3 13.7 1.2125 17-0.1875 5.2-2.1 6.4-2.3062 7-1.4062 1 1.7 4.475 1.2 3.875-0.5-0.5-1.1 0.1-1.5 2-1.5 1.5 0 2.9188-0.7 3.2188-1.5s1.4938-1.6938 2.5938-2.0938c3.4-1-0.19375-3.4938-5.0938-3.5938-2.7 0-4.5125-0.60625-4.8125-1.4062s-0.9-1.4062-1.5-1.4062c-0.5 0-2.4812-1.1938-4.2812-2.5938-3.2-2.4-3.6-2.5-5-1-2.3 2.3-3.5 1.9938-3.5-0.90625 0-2.6-1.6062-4.6-6.4062-8-1.6-1.1-3.4-2.4938-4-3.0938-0.7-0.7-2.0938-1.3-3.0938-1.5s-2.0188-0.9-2.2188-1.5c-0.4-1.3 5.4125-0.6125 6.3125 0.6875 0.3 0.5 1.6062 0.90625 2.9062 0.90625s2.575 0.40625 2.875 0.90625c0.3 0.4 1.925 1.1062 3.625 1.4062 2.1 0.5 2.775 1.0875 2.375 2.1875-0.5 1.1 0.10625 1.5 2.4062 1.5 1.6 0 3.5188 0.7 4.2188 1.5s2.4812 1.4188 4.2812 1.2188c1.7-0.1 3.2062 0.3 3.4062 1 0.3 0.8-0.49375 1.2812-2.0938 1.2812-1.4 0-2.5938 0.40625-2.5938 0.90625 0 1.2 3.0875 2.4875 5.1875 2.1875 1-0.1 4.8062 1.2 8.4062 3 8.8 4.1 12.988 3.7 20.688-2 6.7-4.9 8.3062-7.4 6.9062-10.5-0.6-1.4-0.5938-2.8812-0.0937-3.7812 1-1.9-0.40625-3.3-2.4062-2.5-0.7 0.3-2.1-0.1125-3-0.8125-1.5-1.1-1.5875-1.4-0.1875-2.5 1.2-1 1.8-1 3 0 1.3 1 1.8812 0.99375 3.2812-0.40625 1-0.9 2.3938-1.5938 3.0938-1.5938s0.925-0.49375 0.625-1.0938c-0.4-0.5-1.7125-0.9125-2.8125-0.8125-5.4 0.4-8.1-0.0875-7-1.1875 0.7-0.7 2.2-1.3 3.5-1.5 6.1-0.9 6.3125-1 6.8125-5 0.5-4.1 0.4-4.0125 8-4.3125 5.4-0.2 6.4-1.1875 4.5-4.6875-1.7-3.3-2-9.4062-0.5-9.4062 0.6 0 1 0.7 1 1.5s0.7 1.5 1.5 1.5 1.5 0.4 1.5 1c0 0.5 1.1938 1 2.5938 1s3.7875 0.60625 5.1875 1.4062c1.5 0.7 4.3125 2.1938 6.3125 3.0938 2.8 1.4 3.7875 2.5938 4.6875 6.0938 0.9 3.2 1.7188 4.4 3.2188 4.5 1.1 0.1 2.4875 0.2125 3.1875 0.3125 2.2 0.2 1.8938-2.0875-0.40625-2.6875-2.1-0.6-2.0812-0.71875-0.28125-2.7188 1.6-1.8 1.5938-2 0.0937-2-1.7 0-5.4125-6.4938-4.3125-7.5938 0.3-0.4 2.6938-0.10625 5.0938 0.59375 2.5 0.7 5.5188 1.0188 6.7188 0.71875 3.7-1 11 1.5 12 4 0.5 1.3 1.6062 2.2812 2.4062 2.2812 0.9 0 1.3 0.49375 1 1.0938-0.4 0.6-1.3 0.8-2 0.5-0.8-0.3-2.5125 0.4-3.8125 1.5-1.4 1-3.1938 1.9062-4.0938 1.9062s-1.5938 0.69375-1.5938 1.5938c0 0.8-0.4 1.2062-1 0.90625-1.9-1.2-1.0188 0.6 1.7812 3.5 2.5 2.7 3.3 2.8938 10.5 3.0938 4.7 0.1 8.2-0.175 8.5-0.875 0.4-0.5 2.4-1.3188 4.5-1.7188 3-0.6 3.7188-1.1062 3.2188-2.4062-1.3-3.1-0.91875-3.475 3.7812-4.375 5.6-1.1 7.4062-0.11875 5.4062 2.7812-1 1.2-1.9125 1.5062-2.8125 0.90625-2.4-1.5-3.4938-1.2125-3.5938 0.6875-0.1 1.1 0.2125 1.9062 0.8125 1.9062 0.5 0 0.90625 0.4 0.90625 1 0 0.5-2.0062 1-4.4062 1-6.3 0-6.6062 1.6125-0.40625 2.3125 3.7 0.5 5.8875 0.2 8.1875-1 6-3.1 6.6125-3.3125 9.8125-3.3125 2.9 0 3.3-0.39375 3.5-2.5938 0-1.5 0.70625-3.7 1.4062-5 1-1.9 0.9062-2.6-0.0937-4-0.8-0.8-1.525-3.6875-1.625-6.1875-0.3-6.4-0.68125-8-2.7812-9.5-1.6-1.1-1.1188-1.3125 3.2812-1.3125 2.8 0 5.125 0.20625 5.125 0.40625s-0.7 0.98125-1.5 1.7812c-1.7 1.8-2 5.4062-0.5 5.4062 0.6 0 0.98125 0.61875 0.78125 1.2188-0.1 0.7 0.3 2.2938 1 3.5938 0.7 1.2 1.1938 2.8 1.0938 3.5-0.4 3 0.225 4.5 2.125 5 1.2 0.3 2 1.4 2 2.5 0 1.2 0.38125 2.2938 0.78125 2.5938 1.6 1 14.494 1.4875 16.094 0.6875 0.9-0.5 5.5125-1.2 10.312-1.5s9.2938-0.8875 10.094-1.1875 1.7 0.10625 2 0.90625c0.5 1.5 3.8125 2.0812 15.812 3.2812 4.3 0.4 6.8812 0.2 7.2812-0.5 0.5-0.7 1.5188-0.6938 3.2188-0.0937 1.4 0.6 5 1 8 1 5.7 0 6.9062-1.3062 3.9062-4.4062-0.8-0.8-1.2062-2.2-0.90625-3 0.5-1.2 6e-3 -1.5938-2.0938-1.5938-2.1 0-2.5 0.40625-2 1.9062 0.4 1.3 0 2.0062-1.5 2.4062-2.4 0.6-3.6-0.91875-2-2.7188 0.8-1.1 0.375-1.7-2.125-3-1.8-0.9-3.7938-1.5938-4.5938-1.5938-0.7 0-1.2812-0.7-1.2812-1.5 0-2.5 6.5812-2 7.2812 0.5 0.3 1.3 1.4062 2 2.9062 2 1.2 0 3.3875 0.31875 4.6875 0.71875 2 0.5 2.3125 0.28125 1.8125-1.2188-0.5-1.1 6e-3 -2.3938 1.4062-3.5938 1.2-1.1 1.9-1.9062 1.5-1.9062s-0.0188-0.9875 0.78125-2.1875c0.9-1.2 1.625-3 1.625-4s0.58125-1.8062 1.2812-1.9062c1 0 1-0.19375 0-0.59375-1.5-0.6-1.6812-3.3125-0.28125-3.3125 0.6 0 1-0.9 1-2s-0.4-2-1-2c-1.8 0-1-1.7812 1-2.2812 1.2-0.3 2-1.425 2-2.625s0.375-2.0938 0.875-2.0938 1.7-0.29375 2.5-0.59375c1.4-0.6 1.4062-0.29375-0.0937 2.4062-1 1.7-1.4812 3.2938-1.2812 3.5938 0.3 0.3 2.6812 0.5875 5.2812 0.6875 2.7 0.2 5.0125 0.625 5.3125 1.125 0.7 1.2 10.206 0.98125 10.906-0.21875 0.3-0.6-0.30625-1-1.4062-1-2.7 0-2.7-1.7938 0-4.5938l2-2.1875-2.5938-0.625c-1.4-0.4-2.3-1.0938-2-1.5938 0.8-1.2 1.675-1.2 4.875 0 1.8 0.7 2.4062 1.3938 1.9062 2.5938-0.5 1.4-0.2 1.6188 1.5 1.2188 1.3-0.4 2.2188-0.1 2.2188 0.5s1.1812 2.1062 2.7812 3.4062c2 1.7 2.3 2.1812 1 2.2812-0.9 0-1.7938-0.58125-2.0938-1.2812-0.3-0.9-0.9125-0.925-2.3125-0.125-1.4 0.9-1.7938 2.1062-1.5938 4.9062 0.3 3.3 0.2 3.7-1.5 3-1-0.4-3.7812-0.98125-6.2812-1.2812-2.5-0.2-4.825-0.90625-5.125-1.4062-0.9-1.4-4.1938-1.6938-5.5938-0.59375-0.9 0.7-1.8 0.3875-3-0.8125-1.7-1.7-1.7938-1.7125-2.0938 0.1875-0.2 1-1.1062 2.425-1.9062 3.125-0.9 0.7-1.3 1.8875-1 2.6875 0.4 0.9 0.21875 1.7938-0.28125 2.0938-1.9 1.2-1.0188 2.5 1.7812 2.5 1.5 0 3.4188 0.4 4.2188 1 1.8 1.1 4-0.49375 4-3.0938 0-1.5 0.675-1.9062 3.375-1.9062 3.6 0 9.0188 2.3 9.2188 4 0.1 0.5 0.18125 1.2062 0.28125 1.4062 0 0.3 1.5125 0 3.3125-0.5 2.1-0.5 3.5875-0.5062 4.1875 0.0937 0.7 0.7 0.3125 1-1.1875 1-1.2 0-2.1062 0.61875-1.9062 1.2188 0.1 0.8-1.1812 1.3938-3.2812 1.5938-1.9 0.2-3.9062 0.78125-4.4062 1.2812-0.6 0.5-2.2188 0.90625-3.7188 0.90625s-2.8812 0.69375-3.2812 1.5938c-0.5 1.2-1 1.4-2 0.5-0.7-0.6-1.5062-0.8-1.9062-0.5-0.3 0.3-0.99375-0.275-1.5938-1.375-0.9-1.7-2.0125-2.0062-6.3125-1.9062l-5.2812 0.1875-0.3125 3.8125-0.3125 3.6875h4c3 0 4.125 0.4 4.125 1.5 0 1.7-3.5 2.1-4.5 0.5s-3.2062-1.1812-3.9062 0.71875c-0.3 1-0.91875 2.3938-1.2188 3.0938s-0.1875 1.1938 0.3125 1.0938c0.4-0.1 1.0125-6e-3 1.3125 0.0937 0.3 0.1 2.3 0.39375 4.5 0.59375 6.2 0.6 8.3938 1.0188 9.0938 1.7188 0.4 0.4 1.5 0.6875 2.5 0.6875 0.9 0 3.2 1.3938 5 3.0938l3.2812 3.125 1-2.3125c0.6-1.3 1.125-2.4875 1.125-2.6875 0.1-0.1 1.7875 0.3875 3.6875 1.1875 4.9 2.1 10.812 0.40625 10.812-3.0938 0-1.8-0.60625-2.3125-2.4062-2.3125-2 0-2.3125-0.38125-1.8125-2.7812 0.3-1.5 1.3062-3.3 2.4062-4 1-0.7 1.8125-1.925 1.8125-2.625 0-0.8 0.99375-1.0812 3.0938-0.78125 2.4 0.4 3.0938-0.0188 3.5938-1.7188 0.5-2.1 2.3125-3 2.3125-1 0 1.6 7.1938 0.60625 8.0938-1.0938 0.4-0.8 1.1062-2.4 1.4062-3.5 0.6-1.6 0.78125-1.7 1.2812-0.5 0.6 1.9 2.3062 3.0062 3.4062 2.4062 1.4-0.9 0.89375-3.6-0.90625-5-1.7-1.3-1.7-1.3062 0-1.4062 0.9 0 1.7188 0.4 1.7188 1 0 2 2.1 1 3-1.5 0.9-2.3 1.475-3.1875 5.875-8.1875 1.1-1.1 2.1125-2.9 2.3125-4 0.2-1.2 1.5125-2.0125 3.8125-2.3125 2.8-0.4 3.5812-1 3.7812-3 0.4-2.7 2.2188-5.2938 2.2188-3.0938 0 0.7 0.4875 0.9 1.1875 0.5 0.8-0.5 0.9125-0.2125 0.3125 1.1875-0.4 1-1.0125 3.525-1.3125 5.625-0.3 2.5-1.0125 3.7938-2.3125 4.0938-1.4 0.4-1.675 1.1938-1.375 3.5938 0.2 1.8-0.025 2.8938-0.625 2.5938-1.2-0.8-4.875-1.5-4.875-1 0 1.6 2.5938 5.5 3.5938 5.5 0.6 0 1.3812 0.7 1.7812 1.5 0.3 0.8 1.525 1.5 2.625 1.5s2 0.4 2 1c0 0.5 0.7 1 1.5 1s1.5 0.69375 1.5 1.5938c0 1-0.51875 1.2188-1.2188 0.71875-0.7-0.4-2.3-0.6-3.5-0.5-1.2 0.2-2.5812-0.5-3.2812-1.5-0.9-1.5-1-1.1-0.5 2 0.5 2.8 0.2 3.8812-1 4.2812-1.7 0.7-2.0062 4.0062-0.40625 4.9062 0.5 0.4 2.6812-0.50625 4.7812-1.9062 2-1.4 4.8188-2.5938 6.2188-2.5938 2.9 0 4.9062-1.6875 4.9062-4.1875 0-1.3-0.825-1.8125-2.625-1.8125-3 0-2.2875-1.6938 1.3125-3.0938 2.9-1.1 9.4875 1.5 8.6875 3.5-0.7 1.9 3.825 5.6938 5.625 4.5938 1.1-0.7 1.2-1.1 0-2.5-0.7-0.9-0.90625-1.5062-0.40625-1.4062 4.3 0.8 8.0062-2.1875 6.4062-5.1875-0.9-1.5-0.70625-2.0938 0.59375-2.5938 1.6-0.6 3.6812 1.5062 2.7812 2.9062-0.3 0.4 0.4 0.78125 1.5 0.78125 2.8 0 3.7188 2.0188 1.2188 2.7188-1.2 0.3-2.0938 1.175-2.0938 1.875 0 0.8-1.0188 1.9062-2.2188 2.4062-2 0.9-1.8812 1.0062 1.2188 0.90625 5.3-0.1 5.475-6e-3 3.375 1.5938-1 0.8-2.9875 1.5-4.1875 1.5-1.5 0-2.6062 0.7-2.9062 2-0.4 1.3-1.4062 2-2.9062 2-2.7 0-4.375 2.8-2.375 4 0.9 0.6 0.8 1.0188-0.5 1.7188-1 0.6-1.3125 1.2938-0.8125 1.5938 0.6 0.4 1.8125-0.2125 2.8125-1.3125s2.4-2 3-2c0.7 0 1.8812-0.98125 2.7812-2.2812 1.4-2.1 1.5062-2.1 3.4062-0.5 2.3 2.1 8.6938 2.5 8.0938 0.5-0.3-0.6-1.3938-1.3-2.5938-1.5-2.7-0.4-2.9125-2.2188-0.3125-2.2188 1.1 0 2.325-0.5 2.625-1 0.3-0.6 2.3938-1 4.5938-1 2.9 0 4.6875-0.7 6.6875-2.5 1.5-1.4 3.4188-2.5 4.2188-2.5 1.3 0 4.5812-3.7 4.2812-5 0-0.3-0.2875-1.9-0.6875-3.5-0.6-2.7-0.50625-2.8 0.59375-1 1.9 3 5.2875 2.9062 6.6875-0.0937 0.6-1.4 1.625-2.2062 2.125-1.9062 0.6 0.3 1 0.0188 1-0.78125 0-2 2.675-2.925 3.375-1.125 0.3 0.8 0.0125 1.4062-0.6875 1.4062-1.6 0-4.6 5.1125-4 6.8125 0.3 0.8-1.0938 2.8812-3.0938 4.7812s-3.5938 3.8125-3.5938 4.3125-0.925 1.4875-2.125 2.1875c-1.9 1.3-1.8875 1.7125-0.6875 4.3125 1 2.3 1 3.0062 0 3.4062-0.6 0.2-1.1875 1.1875-1.1875 2.1875s-0.7 2.0062-1.5 2.4062c-2.2 0.8-1.925 2.5938 0.375 2.5938 2.7 0 3.4 1.4938 1.5 3.0938-1.3 1-1.675 1-2.375 0-0.4-0.8-1.9062-1.375-3.4062-1.375-2.7 0-3.5125-1.2-1.3125-2 0.6-0.3-0.29375-0.625-2.0938-0.625-1.8-0.1-3.1125 0.31875-2.8125 0.71875 0.3 0.5-1.0938 1.5938-3.0938 2.5938l-3.5938 1.6875 3.5938 1.8125c2 1 4.7 1.6062 6 1.4062 1.6-0.3 2.6 0.0937 3 1.0938 0.4 1 0.11875 1.5938-0.78125 1.5938-0.8 0-2.225 1.1938-3.125 2.5938-1.1 1.6-2.375 2.425-3.375 2.125-1-0.2-2.5062 0-3.4062 0.5-1.3 0.7-2.1 0.48125-3-0.71875-0.8-1.1-2.9125-1.8062-6.3125-1.9062-5.7-0.3-9.2938 1-5.5938 2 1.3 0.4 1.9938 1.1062 1.5938 1.9062-0.3 1 0.6125 1.4125 3.8125 1.3125 2.9 0 4.4938 0.49375 5.0938 1.5938 0.7 1.2 1.2875 1.3875 2.1875 0.6875 1.6-1.3 5.925-0.9875 4.625 0.3125-0.6 0.6-1 2.0125-1 3.3125 0 3.6 6.8 6.4875 17 7.1875 7.8 0.6 8.4812 0.8125 8.7812 2.8125 0.2 1.3 1.1 2.275 2 2.375 0.9 0 5.3188 0.11875 9.7188 0.21875 7.1 0.2 7.975 0.3875 8.375 2.1875 0.2 1.1 1.1 2.5188 2 3.2188 1.4 1.1 1.1125 1.1812-1.6875 1.2812-2.1 0-3.1938-0.48125-3.0938-1.2812 0.1-0.6 0.1-1.7188 0-2.2188-0.1-1.4-9.0938-1.1812-11.594 0.21875-1.8 1-1.6 1.1812 1.5 1.7812 2 0.3 4.6 1.4938 6 2.5938l2.5 2-4.625-0.59375c-3.5-0.4-4.975-0.1-5.875 1-1 1.2-1.0188 1.9188-0.21875 2.7188 1.7 1.7 1.5188 2.2938-1.2812 3.5938-1.5 0.7-2.5 1.9875-2.5 3.1875 0 1.1-0.525 2-1.125 2s-2.975 1.3-5.375 3c-2.4 1.6-4.7188 3-5.2188 3s-1.5938 0.9-2.5938 2c-0.9 1.1-2.4125 2-3.3125 2-1.1 0-1.4875 0.6125-1.1875 1.8125 0.4 1.3-0.0937 1.8062-1.5938 1.9062-6.3 0.2-14.412 1.575-16.312 2.875-1.2 0.8-3.0938 1.4062-4.0938 1.4062s-2.7125 0.8125-3.8125 1.8125c-2.7 2.6-6.3938 3.3938-7.0938 1.5938-0.8-2.1-8.5812-1.8062-12.781 0.59375-2 1.1-4.6062 2-5.9062 2-4.4 0-8.6062 1.2125-7.9062 2.3125 0.4 0.6-6e-3 0.80625-0.90625 0.40625-0.9-0.3-1.8812-0.3062-2.2812 0.0937-0.3 0.4-2.1125 0.68125-3.8125 0.78125-1.8 0.1-5.8062 0.50625-8.9062 0.90625-3.5 0.5-6.8 0.41875-8.5-0.28125-1.5-0.5-3.6812-1.4125-4.7812-1.8125s-3.3062-0.89375-4.9062-1.0938c-1.6-0.3-3.8-1.1125-5-1.8125-2.3-1.5-16.719-3.4062-26.219-3.4062-4.4 0-6.6 0.4-7.5 1.5-1.1 1.4-1.3812 1.325-2.7812-0.375-1.7-2.2-10.806-3.7062-11.406-1.9062-0.2 0.6-1.1062 0.58125-2.4062-0.21875-3.5-1.8-9.6812-1.3938-11.781 0.90625-1 1.1-2.5062 2.0062-3.4062 1.9062-0.9 0-1.1062-0.3-0.40625-0.5 1.5-0.6 0.50625-3.4062-1.0938-3.4062-0.7 0-1.8062-1.1062-2.4062-2.4062-0.8-1.7-2.4125-2.6938-6.3125-3.5938-3.9-1-5.3875-0.9938-5.6875-0.0937-0.4 1.2-4.0938 0.6-8.0938-1.5-1.4-0.8-3.3188-1.4062-4.2188-1.4062s-1.8812-0.98125-2.2812-2.2812c-0.6-2.5-4.7188-4.7188-8.7188-4.7188-1.5 0-3.075-0.5-3.375-1-1-1.6-2.5-0.1-2.5 2.5 0 1.4-0.80625 2.9-1.9062 3.5-3.3 1.7-4.4188 1.2-3.7188-1.5 0.4-1.7 0.2125-2.5-0.6875-2.5-0.7 0-2.3938-1.1938-3.5938-2.5938-2-2.3-2.8062-2.5-6.4062-2-2.3 0.3-4.8875 0.6-5.6875 0.5-0.8 0-4.6 0.0875-8.5 0.1875-14.4 0.5-22.625 0.21875-23.625-0.78125-0.7-0.7-2.1875-0.81875-4.1875-0.21875-4.6 1.3-6.6875 1.1062-6.6875-0.59375 0-2-2.7125-1.9062-3.8125 0.0937-0.7 1.3-1.0938 1.2-2.5938-1-2-3.1-3.6938-3.2938-6.0938-0.59375-1.5 1.7-2.6 2-6 1.5-3.3-0.5-4.4062-0.29375-5.9062 1.4062-2.6 2.9-3.5938 2.5875-3.5938-0.8125 0-4.5-1.0188-6.0938-3.7188-6.0938-1.3 0-3.2-0.69375-4-1.5938-1.1-1.1-2.3875-1.3125-4.1875-0.8125-1.4 0.4-5.2 0.8125-8.5 0.8125-5.1 0.1-6.0188 0.4125-6.7188 2.3125-0.8 2.3-5.1812 3.275-6.2812 1.375-0.3-0.5-2.1938-1.2-4.0938-1.5-1.9-0.4-6.3125-1.9875-9.8125-3.6875-4.3-2.1-7.3938-2.8875-10.094-2.6875s-4.1062-0.125-4.4062-1.125 0.1875-1.275 2.1875-0.875 2.6062 0.2 2.4062-1c-0.2-1-1.7062-1.6062-4.4062-1.9062-3.1-0.3-4.475 0.0875-5.875 1.6875-1 1.1-2.2188 2-2.7188 2-1.4 0-0.89375-2.1875 0.90625-4.1875 1.5-1.7 1.5125-2.1062 0.3125-2.9062-1.7-1.1-10.006-0.2125-11.406 1.1875-1.4 1.3-4.4062 1.125-4.9062-0.375-0.3-0.9-0.9125-0.825-2.3125 0.375-1.8 1.6-6.6938 2.9-10.594 3-1 0-1.9812 0.4-2.2812 1-0.4 0.5-1.5188 0.90625-2.7188 0.90625-1.1 0-3.1875 0.90625-4.6875 1.9062-1.5 1.1-3.9062 2.2938-5.4062 2.5938-1.4 0.4-2.8875 1.5-3.1875 2.5-0.4 1.3-2.1125 2-6.3125 2.5-5.6 0.6-14.188 4.6-14.188 6.5 0 0.6-0.81875 1-1.7188 1-2.4 0-7.2812 5.0125-7.2812 7.3125 0 1.3079-0.93794 2.6734-2.1875 3.5938-0.68527 2.2037-0.67103 4.0344-0.0313 6.5938 1 3.4 0.81875 3.9812-1.2812 5.7812-1.3 1.1-2.6062 2.7-2.9062 3.5-0.8 2.4 1.8812 5.3188 4.2812 4.7188 2.1-0.6 3.0125 1.8 0.8125 2.5-0.8 0.3-0.7 1.0812 0.5 2.7812 0.9 1.4 1.6875 3.3938 1.6875 4.5938 0 2.3 4.6 6.8062 6 5.9062 0.32194-0.19316 0.6778-0.16533 1 0.0313 1.6068-0.56353 2.125 0.4303 2.125 3.0938 0 4.2 1.9812 5.9062 6.2812 5.4062 2.8-0.3 3.3-0.11875 3 1.2812-0.0202 0.0739-0.0192 0.14826-0.0313 0.21875h2.6562c0.47416 0.61284 1.466 1.1287 2.875 1.5312 2.4 0.6 3.2125 1.275 2.8125 2.375-0.3 0.9 0.0813 1.4062 1.2812 1.4062 1.2 0 2.1 1 2.5 2.5 0.4 1.7 1.3188 2.5 2.7188 2.5 1.5 0 1.9 0.49375 1.5 1.5938-0.4 1 0.28125 1.8 2.2812 2.5 2.4 0.9 2.9938 1.7 3.5938 5.5 0.4 3.2 1.1125 4.4062 2.3125 4.4062 0.9 0 2.3 1.4 3 3 1.2 2.6 1.9125 3 5.3125 3 2.1 0 3.875 0.49375 3.875 1.0938 0 0.5 1.425 1.525 3.125 2.125 0.19031 0.0666 0.30207 0.15224 0.46875 0.21875 0.0946-0.60738 0.2075-1.0625 0.3125-1.0625 1.5 0.1 3.025 1.8125 3.625 4.3125 0.4 1.5 1.5875 3.1812 2.6875 3.7812 1.3 0.7 1.8 1.7 1.5 3-0.3 1.2 6e-3 1.9062 0.90625 1.9062 1.6 0 2.9062 4.2938 1.9062 6.0938-1.3 2 1.575 2.725 4.375 1.125 2.4-1.3 3.1062-1.325 5.9062-0.125 1.9 0.8 3.2188 2.1188 3.2188 3.2188s0.9 3.0062 2 4.4062 2 2.075 2 1.375c0-1.8 3.9875-1.275 4.6875 0.625 0.8 2.3 5.2 6.2812 7 6.2812 0.7 0 1.3125 0.4 1.3125 1 0 0.5 0.575 1 1.375 1 0.7 0 1.6062 0.9 1.9062 2 0.4 1.5 1.0062 1.8125 2.4062 1.3125 1-0.3 2.1062-1.0938 2.4062-1.5938 0.9-1.2 4.2-0.0125 3.5 1.1875-0.3 0.5 0.3 1.9875 1.5 3.1875 1.4 1.7 2.2 2.025 2.5 1.125 0.7-1.4 3.4062-1.6188 3.4062-0.21875 0 0.5-0.7 1-1.5 1s-1.5 0.40625-1.5 0.90625c0 1.5 2.5938 3.1 5.0938 3 3.3-0.1 7.1 0.79375 10.5 2.5938 1.6 0.8 3.4062 1.5 3.9062 1.5 0.6 0 2.1 0.9 3.5 2s3.9 2 5.5 2c1.7 0 5.7 1.3062 9 2.9062 4.7 2.2 6.5 2.6062 8.5 1.9062 1.6-0.6 2.5812-0.6062 2.7812 0.0937 0.2 0.6 0.80625 1.0938 1.4062 1.0938s3.0875 1.5062 5.6875 3.4062c2.5 1.8 6.1125 3.6938 7.8125 4.0938 1.8 0.3 3.5125 1.0938 3.8125 1.5938 0.4 0.5 3.9938 0.90625 8.0938 0.90625 10.6 0 21.306 1.8938 25.406 4.5938 2.6 1.7 5.2 2.3 10 2.5 3.6 0.1 7.0812 0.61875 7.7812 1.2188 0.7 0.5 4.7 1.0812 9 1.2812 7 0.2 11.519 0.90625 24.219 3.4062 2.5 0.5 6.5 1.1938 9 1.5938s5.4 1.2062 6.5 1.9062 4.7 1.8062 8 2.4062c3.3 0.7 7.6 1.5938 9.5 2.0938 11.2 2.6 13.375 3 16.875 3 2.1 0 5.8188-0.90625 8.2188-1.9062s7.6062-2.1938 11.406-2.5938c3.9-0.4 7.5812-1.1812 8.2812-1.7812 0.8-0.6 3.1125-1.0062 5.3125-0.90625 2.1 0.2 4.8938-0.41875 6.0938-1.2188 2.2-1.4 16.312-1.775 49.312-1.375 6.4 0 22.381-1.6125 26.281-2.8125 1.2-0.3 3.0125-1.9938 3.8125-3.5938 1.2-2.3 2.0812-2.8938 4.2812-2.5938 4.1 0.4 11.325-3.1188 10.625-5.2188-0.4-1.4 0.2875-1.7062 4.6875-1.9062 6-0.3 6.2125-0.375 6.3125-3.375 0-1.5 0.68125-2.3 2.2812-2.5s2.2188-1.0188 2.2188-2.7188c0-3.1 1.5812-4.1 2.2812-1.5 0.3 1.1-0.10625 2.7062-0.90625 3.4062-0.8 0.8-1.375 1.9-1.375 2.5 0 2 3.575 1.0875 5.875-1.3125 1.3-1.3 3.8188-2.7 5.7188-3 1.9-0.4 3.4062-1.0938 3.4062-1.5938 0-0.6 0.9-1 2-1 2.3 0 7-2 7-3 0-0.4 1.8-1.3 4-2 2.7-0.9 4-1.8938 4-3.0938 0-1 0.78125-2.3125 1.7812-2.8125 1.6-1 1.6-0.99375 0-1.0938-1 0-1.7812-0.49375-1.7812-1.0938s0.9-0.80625 2-0.40625c1.2 0.4 2.675 0.19375 3.375-0.40625 0.9-0.7 2.2-0.68125 4.5 0.21875 2.9 1.1 3.4188 0.9875 4.7188-0.8125 0.8-1.1 1.7062-1.8812 1.9062-1.7812 1.4 0.8 3.6938 0.0875 5.5938-1.8125 1.1-1.1 2.5812-1.7938 3.2812-1.5938 0.8 0.3 2.7062-0.3125 4.4062-1.3125 2.3-1.4 3.3-2.9875 4-6.1875 0.9-4 1.0062-4.1062 1.9062-1.9062l0.90625 2.4062 3.5938-3.2188c2-1.7 4.0938-2.975 4.5938-2.875 1.5 0.5 6.2188-5.1125 6.2188-7.3125 0-1 0.28125-2 0.78125-2 0.4-0.1 1.8188-0.30625 3.2188-0.40625 1.3-0.1 2.5812-0.80625 2.7812-1.4062s1.0188-1.7 1.7188-2.5c0.9-0.9 0.975-1.6812 0.375-2.2812-0.7-0.7 0-1.3938 2-2.0938 1.7-0.6 3.125-1.625 3.125-2.125 0-0.6 1.775-1.0938 3.875-1.0938 3.4 0 4.1125-0.4 5.3125-3 0.7-1.6 2.1-3 3-3 1.2 0 1.9125-1.2062 2.3125-4.4062 0.6-3.8 1.1938-4.6 3.5938-5.5 2-0.7 2.6812-1.5 2.2812-2.5-0.4-1.1 0-1.5938 1.5-1.5938 1.4 0 2.3188-0.8 2.7188-2.5 0.4-1.5 1.3-2.5 2.5-2.5s1.5812-0.50625 1.2812-1.4062c-0.4-1.1 0.4125-1.775 2.8125-2.375 2.1-0.6 3.2875-1.4 3.1875-2.5-0.1-0.9 0.225-1.5188 0.625-1.2188 0.5 0.3 1.1 0.1 1.5-0.5s1-0.8 1.5-0.5c1.4 0.9 6-3.6062 6-5.9062 0-1.2 0.7875-3.1938 1.6875-4.5938 1.2-1.7 1.3-2.4812 0.5-2.7812-2.2-0.7-1.2875-3.1 0.8125-2.5 2.4 0.6 5.0812-2.3188 4.2812-4.7188-0.3-0.8-1.6062-2.4-2.9062-3.5-2.1-1.8-2.2812-2.3812-1.2812-5.7812 0.7-2.8 0.68125-4.7188-0.21875-7.2188-2-5.5-9.5-9.9062-12.5-7.4062-1.9 1.6-3.5938 0.025-3.5938-3.375 0-1.7-0.8875-2.9125-2.6875-3.8125-1.4-0.8-2.9125-1.8062-3.3125-2.4062-0.4-0.5-0.78125-0.5938-0.78125-0.0937 0 0.5-0.60625 0.2875-1.4062-0.3125-1.9-1.6-5.4188-2.2-6.2188-1-0.3 0.5-1.8938-0.19375-3.5938-1.5938-1.6-1.4-3.6062-2.5-4.4062-2.5-1.6 0-1.875-1.6-0.375-2.5 0.6-0.4 0.88125-1.3812 0.78125-2.2812-0.2-1.3 0.61875-1.8 3.7188-2 2.3-0.2 4.6812-1.2125 5.7812-2.3125 1-1 2.1938-1.9062 2.5938-1.9062 0.9 0 3.7062 3.1188 3.4062 3.7188-0.9 1.6-3.5 3.2812-5 3.2812-1 0-2.4812 0.5-3.2812 1-1.2 0.8-0.91875 1 1.2812 1 1.5 0 3.5938-0.4875 4.5938-1.1875 1.1-0.6 2.6188-0.8125 3.7188-0.3125 1.1 0.4 4.6062 1.0188 7.9062 1.2188 3.3 0.3 6.6938 0.875 7.5938 1.375 0.9 0.4 3.6 0.51875 6 0.21875 5.3-0.8 8.0062-0.81875 13.906-0.21875 4.1 0.4 4.475 0.225 4.375-1.875-0.1-2.6 0.81875-2.825 2.7188-0.625 1 1.3 0.98125 1.7-0.21875 2.5-0.9 0.7 0.525 0.9125 4.625 0.8125 3.3-0.1 7.1938 0.2 8.5938 0.5 3 0.9 10.588-2.2875 10.188-4.1875-0.2-0.7 0.4125-1.2188 1.3125-1.2188 0.8 0 1.3 0.40625 1 0.90625s1.0875 0 3.1875-1c3-1.6 3.7-2.3875 3.5-4.6875l-0.28125-2.7188 1.0938 2.5c0.8 1.9 1.2062 2.2 1.9062 1 0.5-0.8 0.675-1.6938 0.375-2.0938-0.2-0.4 0.51875-0.4875 1.7188-0.1875 1.9 0.5 2.1062 0.2875 1.4062-2.8125-0.4-1.8-1.3062-4.1938-1.9062-5.0938-1.2-2.1 0.3875-3.8125 3.6875-3.8125 0.9 0 1.7188-0.49375 1.7188-1.0938s0.7-1.7 1.5-2.5c1.8-1.8 1.0875-3.7875-1.8125-5.1875-2.2-1-2.2062-1.025 0.59375-2.125l2.8125-1.0938-2.0938-2.6875c-2.6-3.3-8.625-5.6188-11.125-4.2188-2.3 1.2-6.7938 0.81875-8.0938-0.78125-1-1.3-0.8875-1.4188 1.3125-1.7188 0.7 0 1.5-1.0812 2-2.2812 0.6-1.8 0.29375-2.3062-2.4062-3.4062-1.8-0.7-4.0938-2.0938-5.0938-3.0938-1.1-1-3.0188-1.8125-4.2188-1.8125-1.3 0-2.8938-0.78125-3.5938-1.7812-1.4-2-7.1875-4.4-8.1875-3.5-0.3 0.4-1.4938-0.21875-2.5938-1.2188-1.3-1.2-2.7-1.4938-4.5-1.0938-1.5 0.4-2.5 0.19375-2.5-0.40625s-0.4-0.8-1-0.5c-0.5 0.3-1-0.30625-1-1.4062s-0.5-2.2938-1-2.5938c-0.6-0.4-0.8-1.0938-0.5-1.5938 0.4-0.5-0.70625-1.6875-2.4062-2.6875-1.7-0.9-3.0938-2.2188-3.0938-2.7188 0-1.2-4.4188-5.5-5.7188-5.5-0.5 0-1.5938-0.9-2.5938-2-0.9-1.1-2.5875-2-3.6875-2s-2.3188-0.7-2.7188-1.5c-0.4-1.1-1.3812-1.3938-3.2812-1.0938-2.4 0.3-2.9062 0-3.4062-2.5-0.3-1.6-1.4125-3.1938-2.3125-3.5938-1-0.4-2.1-1.0938-2.5-1.5938-0.5-0.9-2.0812-1.325-6.7812-1.625-1.2-0.1-1.1188-0.3875 0.28125-1.1875 3.5-2 1.4938-3.2-7.9062-4.5-3.7-0.5-5.575 2.0938-2.375 3.0938 1.9 0.6 1.9 0.61875 0 2.7188-1.5 1.6-1.7062 2.5-0.90625 4 0.8 1.6 0.50625 1.875-2.0938 2.375-1.7 0.4-3 1.325-3 2.125s-0.61875 1.3-1.2188 1c-1.3-0.4-3.6812 1.9938-3.7812 3.5938 0 0.5 0.775 0.5875 1.875 0.1875 1-0.3 2.3 0.10625 3 0.90625 1 1.1 0.8 1.7-1 3-3 2.1-5.1875 0.30625-4.6875-3.5938 0.6-3.6-1.2938-5.3125-4.0938-3.8125-1.4 0.7-2.0938 0.7-2.0938 0 0-0.5 0.7-1 1.5-1s1.5-0.7 1.5-1.5-0.7-1.5-1.5-1.5c-2 0-1.9188-1.1938 0.28125-3.5938 1-1.1 1.8062-3.5875 1.9062-6.1875 0.2-3.4-0.19375-4.5188-2.0938-5.7188-1.3-0.9-3.2938-1.3812-4.5938-1.2812-1.2 0.2-2.5188-0.3-2.7188-1-0.3-0.7 0.39375-1.2188 1.5938-1.2188 1.1 0 2.325-0.5 2.625-1 0.3-0.6 1.1812-1 1.7812-1 0.7 0 0.61875 0.4-0.28125 1-1.3 0.8-1.2188 1 0.28125 1 0.9 0 1.7188-0.7 1.7188-1.5s-0.7-1.5-1.5-1.5-1.5-0.40625-1.5-0.90625-1.0188-0.675-2.2188-0.375l-2.2812 0.59375 2.2812-2.2188c2.7-2.7 2.7188-3.2938 0.21875-5.5938-1.1-1-2-2.3-2-3 0-0.6-1.225-1.7062-2.625-2.4062-1.7-0.7-2.4-1.6875-2-2.6875 0.6-1.5-0.28125-2.0938-3.7812-2.5938-2.1-0.3-8.5938-6.3125-8.5938-7.8125 0-0.6-0.9-1-2-1-1.7 0-1.9-0.3-1-2 0.8-1.6 0.58125-2.0938-1.2188-3.0938-1.3-0.7-3.5875-2.4938-5.1875-4.0938-1.7-1.5-3.3125-2.8125-3.8125-2.8125-0.4 0-1.3875-1.6-2.1875-3.5s-2.1062-3.5-2.9062-3.5c-0.7 0-2.3-1.4-3.5-3-1.3-1.7-2.8875-3-3.6875-3-0.7 0-1.9-1.5062-2.5-3.4062-0.7-2.3-1.925-3.6-3.625-4-1.6-0.4-2.9875-1.7938-3.6875-3.5938-0.6-1.7-1.5062-3-1.9062-3s-2.4875-1.8-4.6875-4-4.4-4-5-4-1.0938-0.98125-1.0938-2.2812c0-1.4-2.025-4.425-5.125-7.625-3.7-3.8-4.8938-5.8812-4.5938-7.2812 0.4-1.4-6e-3 -2.2-1.4062-2.5-1.3-0.4-1.875-1.4062-1.875-3.4062 0-2.4-0.51875-2.9062-3.2188-3.4062-3.9-0.6-7.7812-0.30625-7.7812 0.59375 0 1.3-4.025 0.425-6.125-1.375-1.5-1.3-1.9-2.5188-1.5-4.2188 0.5-2.1 0.2125-2.4-3.6875-3-2.3-0.4-4.5938-0.98125-5.0938-1.2812-2.5-1.5-14.1-2.0125-17.5-0.8125-2.1 0.7-2.3125 0.5875-1.8125-1.3125 0.4-1.6 0.11875-2.0938-1.2812-2.0938-3.1 0-4.9125 1.0938-4.3125 2.5938 0.6 1.6-2.1875 2.0062-3.1875 0.40625-0.4-0.6-1.125-0.8-1.625-0.5-0.5 0.4-1-0.3875-1-1.6875-0.3-4.8-0.4-5.2938-2-5.5938-0.9-0.2-2.3875 0.38125-3.1875 1.2812-1.3 1.2-2.7875 1.4062-6.6875 0.90625-3.7-0.5-4.825-1.0125-4.125-1.8125 1.1-1.3 0.41875-5.5938-0.78125-5.5938-0.4 0-1.3938 1.1-2.0938 2.5-1.3 2.4-1.425 2.4125-4.125 0.8125-2.2-1.3-3.0875-1.4-4.1875-0.5-1.2 1-1.5938 0.8875-2.0938-0.3125-0.7-1.8-3.4938-1.8875-6.0938-0.1875-3.1 2-9.4 3.8875-10.5 3.1875-0.5-0.3-1 0.10625-1 0.90625 0 1.8-4.0188 2.2-5.7188 0.5-1.2-1.2-4.6812 1.6938-3.7812 3.0938 0.3 0.5 0.0937 1.1062-0.40625 1.4062-0.5 0.4-1.1938 0.19375-1.5938-0.40625-0.3-0.5-1.9062-1-3.4062-1-3.8 0-6.0938 3.6-6.0938 9.5 0 3.1-0.40625 4.5-1.4062 4.5-1.1 0-2.3 2.8188-3 7.2188-0.3 1.7-1.7125 1.8938-3.8125 0.59375-2.2-1.4-11.081-3.1062-15.281-2.9062-1.1 0-3.8 0.2125-6 0.3125l-4 0.1875v-9.5937l-5.2188 0.40625c-5.1 0.3-5.3 0.18125-6-2.7188-0.4-1.7-0.78125-3.5812-0.78125-4.2812 0-1.9-7.2125-7.1125-9.3125-6.8125-0.9 0.2-1.9125 1.3875-2.3125 2.6875l-0.59375 2.4062-1-2.2812c-0.5-1.3-1.9812-2.925-3.2812-3.625-1.4-0.7-2.4188-1.775-2.2188-2.375 0.1-0.7-0.4-1.2188-1-1.2188-0.7 0-2.3-0.29375-3.5-0.59375-1.7-0.5-2.2812-0.19375-2.2812 0.90625 0 1.9-3.6062 1.1938-4.4062-0.90625-0.3-0.8-1.9-1.4062-3.5-1.4062s-3.1125-0.4875-3.3125-1.1875c-0.3-0.7-3.0062-1.2062-6.9062-1.4062-3.5-0.1-6.6938-0.3125-7.0938-0.3125-0.4-0.1-0.7-1.0812-0.5-2.2812 0.16875-1.8-0.95066-2.7306-2.4688-2.6875zm145.44 6.4375c-0.81562-0.0516-1.525 0.1375-1.75 0.4375-0.8 1.4 1.2938 2.2188 3.0938 1.2188 1.4-0.8 1.4-1-0.5-1.5-0.275-0.075-0.57187-0.13906-0.84375-0.15625zm14.156 1.125c-0.70312 0.0562-0.90625 0.68125-0.90625 2.0312 0 1.5 0.5 2.2938 1.5 2.0938 2.2-0.5 2.3812-3.5 0.28125-4-0.35-0.1-0.64062-0.14375-0.875-0.125zm11.781 5.3438c-0.5125 0-1.2375 0.31875-2.1875 0.96875-1.2 0.8-1.1188 1 0.78125 1 1.2 0 2.2188-0.5 2.2188-1 0-0.65-0.3-0.96875-0.8125-0.96875zm-105.47 26.969c1.6465-0.0811 4 0.59375 4.875 1.7188 1.6 2.2 1.7062 3.2812 0.40625 3.2812-0.5 0-1-0.7-1-1.5 0-1-1-1.5-3-1.5-1.6 0-3-0.5-3-1 0-0.6375 0.73086-0.95137 1.7188-1zm171.81 33.188c0.7875-0.0125 1.6 0.4125 1.75 1.3125 0.1 0.5-0.6 1.1125-1.5 1.3125-1.1 0.2-1.7812-0.3125-1.7812-1.3125 0-0.85 0.74375-1.3 1.5312-1.3125zm-339.53 2.8125c1.9 0 2.0875 0.31875 1.1875 1.2188s-1.5062 0.9-2.4062 0-0.68125-1.2188 1.2188-1.2188zm300.94 42.812c0.34431-0.1415 0.85625 0.6125 1.25 2.1875 0.1 0.9-0.0937 1.8-0.59375 2-0.5 0.3-1-0.6875-1-2.1875-0.0875-1.225 0.076-1.8899 0.34375-2zm-238.75 7.0938 2 2.3125c1.3 1.5 1.8062 3.1812 1.4062 4.7812-0.4 2.1-0.10625 2.6188 1.5938 2.7188 4.6 0.4 5 5.2812 0.5 5.2812-2.6 0-7.1938-5.2938-6.0938-7.0938 0.3-0.6 0.59375-2.6 0.59375-4.5v-3.5zm341.69 0.5c1.1 0 1.7 0.4125 1.5 0.8125-0.3 0.4-1.4 0.78125-2.5 0.78125s-1.8-0.38125-1.5-0.78125c0.2-0.4 1.4-0.8125 2.5-0.8125zm-222.22 3.75c0.13125-9e-3 0.2875 0.0125 0.4375 0.0625 0.6 0.2 1 0.69375 1 1.0938-0.1 0.4-0.0937 1.3875-0.0937 2.1875 0 1-1 1.5-3 1.5-2.2 0-2.8062-0.4-2.4062-1.5 0.4-0.8 1.2-1.5 2-1.5s1.4062-0.49375 1.4062-1.0938c0-0.45 0.2625-0.72188 0.65625-0.75zm232.53 2.8438c-0.8 0-0.5 1.1 1 3 2.4 3.2 3.3062 3.6125 4.4062 1.8125 0.5-0.7 0.30625-0.8125-0.59375-0.3125-0.8 0.5-1.1125 0.30625-0.8125-0.59375 0.5-1.5-1.9-3.8062-4-3.9062zm-293.25 1.125c0.7998-0.1123 1.0938 0.71875 1.1562 2.5938 0.1 1.6 0.1 3.3938 0 4.0938-0.1 0.8 0.68125 1.6062 1.7812 1.9062 1.5 0.4 2.125 1.275 2.125 3.375 0 1.5 0.5 3.1062 1 3.4062 0.6 0.3 1 1.0938 1 1.5938 0 0.6-0.40625 0.8-0.90625 0.5-0.4-0.3-1.7188 0.10625-2.7188 0.90625-1.6 1.3-1.675 1.6-0.375 2.5 0.9 0.6 0.98125 1 0.28125 1-0.6 0-1.3812 1.3-1.7812 3-0.7 3.1-2.5 4.2-2.5 1.5 0-2.1-2.7-3-4.5-1.5-0.8 0.6-2.0188 1.0188-2.7188 0.71875-0.7-0.2-2.5062-0.125-3.9062 0.375-2.5 0.7-4.875-0.38125-4.875-2.2812 0-1.5 4.4875-3.1125 9.6875-3.3125 6.1-0.3 7.8938-1.3812 8.5938-5.2812 0.4-1.9-6e-3 -3-1.4062-4-2.1-1.4-2.4812-3.8062-0.78125-4.4062 0.6-0.2 0.19375-1.2125-0.90625-2.3125-1.7-1.8-1.7125-2.0875-0.3125-3.1875 0.9-0.7125 1.5826-1.1201 2.0625-1.1875zm-15.594 0.40625c0.13065-0.0144 0.25635-0.0171 0.375 0 0.79102 0.11426 1.2812 0.9375 1.2812 2.375 0 1.8 6.0938 5.0938 9.5938 5.0938 1.8 0.1 1.7938 0.0937 0.0937 1.0938-1 0.6-3.2 0.9125-5 0.8125-5.2-0.3-6.6875-6e-3 -6.6875 1.5938 0 0.9-1.2188 2.1188-2.7188 2.7188-3.8 1.6-11.106 1.9938-11.906 0.59375-0.9-1.4 1.8-3.0125 3-1.8125 1.7 1.7 3.5188 1.1 4.2188-1.5 0.3-1.4 1.2938-2.5 2.0938-2.5 1.9 0 4.1-2.1812 3.5-3.7812-0.2-0.6-1.5125-1.2188-2.8125-1.2188s-2.375-0.5-2.375-1c0-0.6 0.98125-1 2.2812-1 1.2 0 2.9188-0.40625 3.7188-0.90625 0.50625-0.3375 0.95181-0.51941 1.3438-0.5625zm44.812 3.5625c0.5625-0.0875 0.84375 0.20625 0.84375 0.90625 0 0.5 1.4 1 3 1 1.9 0 3 0.50625 3 1.4062 0 2.3-2.2188 3.0875-3.2188 1.1875-0.6-1-2.2-1.5938-4.5-1.5938-3.5 0-3.5875-0.1-1.6875-1.5 1.15-0.85 2-1.3188 2.5625-1.4062zm-54.031 0.4375c0.375-0.025 0.6 0.1625 0.75 0.5625 0.2 0.6-0.3 1.5062-1 1.9062-2.2 1.4-3.3812-0.1875-1.2812-1.6875 0.65-0.5 1.1562-0.75625 1.5312-0.78125zm232.56 1.4688c0.17227 0.0211 0.3125 0.26875 0.3125 0.71875 0 0.5-0.7 1.6875-1.5 2.6875-1.2 1.6-1.8188 1.7125-2.7188 0.8125s-0.8-1.2188 0.5-1.2188c1 0 2.0125-0.7 2.3125-1.5 0.375-1 0.80664-1.5352 1.0938-1.5zm91.562 1.4062c-0.275 0.0625-0.50625 0.25-0.65625 0.5-0.4 0.5-0.21875 1.2 0.28125 1.5 0.5 0.4 1.2 0.1875 1.5-0.3125 0.4-0.5 0.21875-1.2-0.28125-1.5-0.25-0.2-0.56875-0.25-0.84375-0.1875zm-393.47 1.5938c3.9 0 4.2188 0.21875 4.2188 2.7188 0 1.8 0.9875 3.475 2.6875 4.875 2.3 1.8 2.5 2.4188 1.5 3.7188-1.2 1.4-1.5125 1.3938-3.3125-0.40625-1-1-1.875-2.8125-1.875-3.8125 0-1.1-0.80625-2.1938-1.9062-2.5938-1-0.3-2.5938-1.4-3.5938-2.5-1.8-2-1.7188-2 2.2812-2zm192.22 1c0.6 0 1 0.7 1 1.5s-0.4 1.5-1 1.5c-0.5 0-1-0.7-1-1.5s0.5-1.5 1-1.5zm-15.219 0.09375c2.4 0 5.2125 0.4 6.3125 1 1.4 0.7 1.7812 1.625 1.2812 3.125-0.3 1.2-0.075 2.3812 0.625 2.7812 1.3 0.8 0.5 7-1 7-1.3 0-1.8062-2.2938-0.90625-4.5938 0.4-1.2 0.4875-2.5125 0.1875-2.8125-1-1-4.2812-0.69375-4.2812 0.40625 0 0.5-0.7 1-1.5 1-2 0-1.9062-1.8875 0.0937-4.1875 1.8-1.9 1.6062-2.0938-3.0938-3.0938-1.1-0.3-0.11875-0.525 2.2812-0.625zm-122.41 0.28125c0.56348-0.0478 0.8125 0.90625 1 3.0312 0.4 2.9-0.475 3.2938-2.375 1.0938-1-1.2-1-1.8 0-3 0.6-0.7125 1.0369-1.0963 1.375-1.125zm324.03 0.15625c1.1672-0.0188 2.5938 0.64375 2.5938 1.4688 0 0.5 0.58125 1.0125 1.2812 1.3125 0.6 0.2 0.20625 0.2-1.0938 0s-2.1 0.10625-2 0.90625c0.2 0.6-0.5 1.3938-1.5 1.5938-1.5 0.3-1.8-0.1-1.5-2 0.2-1.2 0.6875-2.6 1.1875-3 0.275-0.175 0.64219-0.275 1.0312-0.28125zm-230.03 1.4688c0.9 0 1.625 0.4 1.625 1 0 0.5-0.40625 1-0.90625 1-0.6 0-1.2938-0.5-1.5938-1-0.3-0.6 0.075-1 0.875-1zm256.88 2c1.1679-0.0935 1.4438 1.1062 1.0312 3.7188-0.5 2.7-0.30625 3.3812 0.59375 2.7812 1-0.6 1.125-0.3 0.125 1.5-0.6 1.2-0.925 2.8-0.625 3.5 0.8 2.3-1.6812 3.5062-3.7812 1.9062-1.7-1.2-1.6938-1.9875-0.0937-1.1875 0.2 0.2 1.2-0.7 2-2 1.5-2.1 1.475-2.4125-0.625-5.3125-1.8-2.6-1.8812-3.3-0.78125-4 0.90625-0.5625 1.6254-0.86377 2.1562-0.90625zm-11.031 1.3125c-0.0625 0.075-0.0375 0.44375 0.0625 1.0938 0.1 1.1 0.91875 2.1125 1.7188 2.3125 1 0.3 1.075 0.19375 0.375-0.40625-0.6-0.4-1.3875-1.5125-1.6875-2.3125-0.25-0.55-0.40625-0.7625-0.46875-0.6875zm-146.88 2.7188c0.98633-0.0596 1.6562 0.46875 1.6562 1.4688 0 0.9-0.725 1.8188-1.625 2.2188-2 0.7-3.7938-1.8062-2.0938-2.9062 0.75-0.4875 1.4707-0.74551 2.0625-0.78125zm-171.62 0.21875c0.7959-0.0147 1.6562 0.53125 1.9688 1.4688 0.3 0.9-0.8 0.975-3.5 0.375-0.2-0.1 0.0125-0.5875 0.3125-1.1875 0.3-0.45 0.74121-0.64746 1.2188-0.65625zm-6.7188 0.75c1.9 0 2.0875 0.31875 1.1875 1.2188s-1.5062 0.9-2.4062 0-0.68125-1.2188 1.2188-1.2188zm323.59 2c-0.9 0-1.5938 0.4-1.5938 1 0 0.5 0.375 1 0.875 1 0.6 0 1.325-0.5 1.625-1 0.3-0.6-0.10625-1-0.90625-1zm-219.47 3.125c0.70292-1e-3 0.875 0.57813 0.875 1.7812 0 2.7-2.8188 4.7-4.7188 3.5-2.2-1.4-1.8875-2.6938 0.8125-4.0938 1.2375-0.6375 2.0986-1.0408 2.6875-1.1562 0.12268-0.024 0.24333-0.031 0.34375-0.0313zm-162.84 3.1562c0.8582-0.10791 1.7188 1.1875 1.7188 2.8125 0 1-0.40625 1.9062-0.90625 1.9062-1 0-2.1062-3.6062-1.4062-4.4062 0.1875-0.1875 0.3957-0.2876 0.59375-0.3125zm90.438 1.375c0.77148-0.11328 1.2812 0.53125 1.2812 1.8438 0 1.9-2.0188 2.9188-3.2188 1.7188-0.7-0.7-0.5875-1.5 0.3125-2.5 0.6-0.6375 1.1621-0.99453 1.625-1.0625zm-111.31 0.34375c-0.7875 0.0756-1.5812 0.41875-2.0312 1.0938-0.7 1.2 1.525 3.125 3.125 2.625 0.6-0.2 1.0812-1.1 1.2812-2 0.25-1.1875-1.0625-1.8447-2.375-1.7188zm126.53 1.0312c0.61523 0.0342 1.0625 0.71875 1.0625 1.9688 0 1.3-0.5 1.8062-1.5 1.4062-1.6-0.7-1.9125-1.6875-0.8125-2.6875 0.45-0.4875 0.88086-0.70801 1.25-0.6875zm-372.28 0.375c-0.77695 0.0604-1.8062 0.4-3.1562 1-3.3 1.4-2.6188 2.1 2.2812 2.5 2.8 0.2 3.3-0.1 3-1.5-0.25-1.4375-0.83008-2.1006-2.125-2zm202 0.71875c-0.5125 0.0375-0.9625 0.63125-1.5625 1.7812-1.2 2.2-0.50625 3.0938 2.5938 3.0938 2.6 0 2.8062-0.68125 0.90625-3.2812-0.85-1.1-1.425-1.6312-1.9375-1.5938zm68.781 0.21875c0.2375-0.1 0.55625 0.30625 1.1562 1.1562 0.8 1 1.4062 2.2188 1.4062 2.7188 0 0.4-0.80625 0.78125-1.9062 0.78125-1.4 0-1.7125-0.5875-1.3125-2.6875 0.25-1.25 0.41875-1.8688 0.65625-1.9688zm218.16 0c-0.36563-0.0703-0.59375 0.1125-0.59375 0.5625 0 0.5-2.6188 1.8125-5.7188 2.8125s-5.8 2.275-6 2.875c-0.5 1.6 4.7938 3.3188 8.0938 2.7188 2.6-0.5 4.7188-2.3125 2.7188-2.3125-0.6 0-1.0938-0.69375-1.0938-1.5938 0-0.8 0.38125-1.3 0.78125-1 0.4 0.2 1.3-0.40625 2-1.4062 0.7-1.2 0.81875-2.1 0.21875-2.5-0.15-0.075-0.28437-0.13281-0.40625-0.15625zm69.656 0.0625c0.275-0.0625 0.59375-0.0125 0.84375 0.1875 0.5 0.3 0.68125 1 0.28125 1.5-0.3 0.5-1 0.7125-1.5 0.3125-0.5-0.3-0.68125-1-0.28125-1.5 0.15-0.25 0.38125-0.4375 0.65625-0.5zm-153.97 0.59375c0.8 0 1.7 0.9 2 2 0.3 1.3-6e-3 2-0.90625 2-0.8 0-1.375-0.20625-1.375-0.40625s-0.325-1.1-0.625-2c-0.4-1-0.0937-1.5938 0.90625-1.5938zm200.59 3.1875c0.94727-0.11914 1.125 0.4375 1.125 1.8125 0 1.5-0.70625 2-2.4062 2-3.4 0-4.2062-1.8062-1.4062-2.9062 1.275-0.525 2.1191-0.83477 2.6875-0.90625zm-26.688 2.8125c0.7 0 0.7062 0.50625-0.0937 1.4062-1.4 1.7-5.5188 2.5938-7.2188 1.5938-0.8-0.5-0.5-1 1-1.5 1.1-0.3 2.5-0.4 3 0 0.5 0.3 1.225 0.1 1.625-0.5 0.3-0.5 1.0875-1 1.6875-1zm14.812 0.21875c1.9 0 2.6812 0.2 1.7812 0.5-1 0.2-2.6 0.2-3.5 0-1-0.3-0.18125-0.5 1.7188-0.5zm57.312 0.4375c0.25-0.125 0.5875 0.2625 1.1875 1.0625 1.1 1.4 0.99375 1.875-0.40625 2.875-2.1 1.6-2.3 1.2-1.5-2 0.3-1.2 0.46875-1.8125 0.71875-1.9375zm5.2812 2.3438c0.8 0 1.2062 0.4 0.90625 1-0.3 0.5-1.025 1-1.625 1-0.5 0-0.875-0.5-0.875-1 0-0.6 0.69375-1 1.5938-1zm-172.47 3.2188c-0.47461-5.9e-4 -1.2188 0.2-2.3438 0.5-1 0.2-1.7812 0.78125-1.7812 1.2812 0 0.4-0.9 1.0125-2 1.3125-2.5 0.6-2.6188 2.4062-0.21875 2.9062 2.7 0.6 7.2188-2.1125 7.2188-4.3125 0-1.1875-0.084-1.6865-0.875-1.6875zm11.938 0c-0.47754 0.0258-1.1938 0.2-2.2812 0.5-2.2 0.6-3.0812 3.175-1.2812 3.875s4.5-1.2875 4.5-3.1875c0-0.875-0.1416-1.2305-0.9375-1.1875zm-25.625 0.3125c-0.97852 0.0721-1.8562 0.33125-2.1562 0.78125-0.9 1.5 1.1 2.6938 3.5 2.0938 1.2-0.4 2.2188-1.1125 2.2188-1.8125 0-0.8125-1.9316-1.1826-3.5625-1.0625zm-465 2.5c0.775 0.05 1.6625 0.4125 2.0625 1.0625 0.4 0.6 0.4875 1.2 0.1875 1.5-0.7 0.7-3.6875-0.6875-3.6875-1.6875 0-0.65 0.6625-0.925 1.4375-0.875zm161.56 1.125c0.44177-0.13364 1.775 0.275 4.0938 1.0625 3.5 1.2 4.9062 2.4 4.9062 4.5 0 2.3-2.7062 1.3812-6.4062-2.2188-2.25-2.1375-3.1617-3.1719-2.5938-3.3438zm-189.72 0.84375c-0.61426-0.0117-1.0312 0.84375-0.78125 2.2188 0.7 3.5 2.075 4.1812 5.375 2.7812 3.9-1.6 4.0188-3 0.21875-3-1.7 0-3.2938-0.5-3.5938-1-0.4125-0.675-0.8502-0.99297-1.2188-1zm212.59 2c1.2 0 2.125 0.4 2.125 1 0 0.5-0.60625 1-1.4062 1s-1.7938-0.5-2.0938-1c-0.3-0.6 0.275-1 1.375-1zm412 6.0938c0.18418-0.0208 0.35-0.0125 0.5 0 2.1 0 2.125 0.0188 0.125 1.2188-1 0.7-3.2188 2.4062-4.7188 3.9062-1.5 1.4-2.7812 2.3875-2.7812 2.1875 0-0.3-1.2188 0.6-2.7188 2s-3 2.3-3.5 2c-0.4-0.3-0.78125 0.4-0.78125 1.5 0 1.2 0.5 2.0938 1 2.0938 0.6 0 1 0.6125 1 1.3125 0 2.1-12.025 3.7938-14.125 2.0938-0.8-0.8-2-1.4062-2.5-1.4062s-0.99375-0.9-1.0938-2 0.4125-2 1.3125-2c0.8 0 1.4062-0.5 1.4062-1 0-0.6 0.78125-0.98125 1.7812-0.78125 1.1 0.2 1.6062-0.3 1.4062-1.5-0.3-1.6 0.79375-2.1125 3.5938-1.8125 2.1 0.3 11.294-3.0938 15.094-5.5938 1.6625-1.1375 3.7107-2.073 5-2.2188zm-629.78 2.0625c0.09718-0.011 0.2027-5e-3 0.3125 0 0.11711 5e-3 0.24375 0.0375 0.375 0.0625 0.9 0.2 1.8 1.2938 2 2.5938 0.4 2.4-0.69375 2.9-2.5938 1-1.582-1.582-1.5515-3.4918-0.09375-3.6562zm577.03 4.5938c0.35391 0.0299 0.85 0.225 1.5625 0.5625 1.3 0.6 2.1938 1.5062 2.0938 1.9062-0.2 0.5-0.69375 0.875-1.0938 0.875-0.4-0.1-1.2938-0.0937-2.0938-0.0937s-1.4125-0.80625-1.3125-1.9062c0.0625-1 0.25391-1.3936 0.84375-1.3438zm-424.78 2.2812c0.15436-8e-3 0.29431-0.0129 0.4375 0 0.6873 0.0621 1.2188 0.36875 1.2188 0.96875 0 0.5 0.78125 0.99375 1.7812 1.0938 0.9 0 0.41875 0.5-1.2812 1-3.7 1.1-5.7062 0.50625-4.9062-1.5938 0.38281-0.875 1.6695-1.4149 2.75-1.4688zm-57.625 5.125c0.42656-0.0172 0.9375 0.0125 1.5625 0.0625 2.4 0.2 3.2188 0.7875 3.2188 2.1875 0 1.1-0.61875 2.1125-1.2188 2.3125-0.7 0.3-1.2812-0.025-1.2812-0.625s-0.9-1.0938-2-1.0938-2-0.69375-2-1.5938c0-0.825 0.43906-1.1984 1.7188-1.25zm-97.531 0.46875c-0.69434-0.0158-1.1875 0.21875-1.1875 0.78125 0 0.6 0.9 1.7062 2 2.4062 2.5 1.5 4.6 0.5875 3-1.3125-0.9375-1.125-2.6553-1.8486-3.8125-1.875zm585.28 5.6875c0.89062-0.0219 1.8562-0.025 2.9062 0 4.1 0.1 7.2062 0.50625 6.9062 0.90625-0.2 0.5-2.0062 0.78125-3.9062 0.78125-2 0-3.375 0.51875-3.375 1.2188 0 0.9-0.31875 0.9-1.2188 0-0.7-0.7-2.2-1.2188-3.5-1.2188s-2.2812-0.4-2.2812-1c0-0.375 1.7969-0.62187 4.4688-0.6875zm-494.34 1.6875c0.15842-0.01 0.35 0 0.5625 0 1 0 2.4 0.9 3 2 1.9 2.9 0.10625 3.2062-2.5938 0.40625-1.8375-1.925-2.0777-2.3367-0.96875-2.4062zm15.688 3.2812c0.71719 0 1.1 0.0875 0.875 0.3125-0.8 0.8-4.8125 1.325-4.3125 0.625 0.2-0.4 1.425-0.80625 2.625-0.90625 0.3-0.025 0.57344-0.0313 0.8125-0.0313zm4.9688 2.0625c0.89844-0.0576 1.5938 0.375 1.9062 1.25 0.1 0.5-0.1875 1.6062-0.6875 2.4062-0.8 1.3-1.2188 1.3188-2.7188-0.28125-1.6-1.5-1.5812-1.9188-0.28125-2.7188 0.6375-0.4125 1.2422-0.62168 1.7812-0.65625zm551.31 1.6562c0.5 0 0.90625 0.4 0.90625 1 0 0.5-0.725 1-1.625 1-0.8 0-1.175-0.5-0.875-1 0.3-0.6 0.99375-1 1.5938-1zm16.688 2c3.1 0 4.2125 0.30625 3.3125 0.90625-0.8 0.5-1.1125 1.6-0.8125 2.5 0.4 1-0.1875 2.0125-1.6875 2.8125-1.9 1.1-2.2 1.6938-1.5 3.5938s1.1812 2.0875 2.7812 1.1875c3.1-1.6 5.125-1.2 5.125 1 0 2-0.51875 2.1062-11.219 1.9062-6.2-0.1-12.381-0.59375-13.781-1.0938-2.5-0.9-2.5-1.0062-0.5-2.4062 2-1.5 1.9938-1.5 0.0937-3-1.9-1.4-1.9-1.3938 0.5-1.5938 1.3 0 2.9875-0.0937 3.6875-0.0937 0.6 0.1 1.2188-0.3125 1.2188-0.8125s1.1812-0.90625 2.7812-0.90625 3.2-0.8 4-2c0.9-1.5 2.3-2 6-2zm-29.594 0.625c1.8198 9e-3 3.8156 0.1125 5.8125 0.28125 2.8 0.3-1.7 2.2-7 3-4.6 0.7-7 0-7-2 0-0.6875 2.6826-1.1533 6.4375-1.25 0.56323-0.0145 1.1434-0.0344 1.75-0.0313zm-39.062 4.375c0.18297-0.0146 0.3623-9e-3 0.5625 0 0.96094 0.0451 2.1125 0.3625 3.3125 1 1.2 0.6 1.6812 1.5938 1.2812 2.5938-0.5 1.3 0.0125 1.5125 2.3125 1.3125 1.8-0.2 4.4 0.6125 6.5 1.8125 2.8 1.8 4.8062 2.2 10.406 2 3.9-0.1 7.2938-0.5 7.5938-1 0.4-0.5 1.6062-0.41875 2.9062 0.28125 1.2 0.6 3.0938 1.0188 4.0938 0.71875s1.9062-0.1 1.9062 0.5 1.475 0.68125 3.875 0.28125c3.5-0.6 4.1-0.39375 6 2.4062 1.6 2.2 2.925 2.9062 5.125 2.9062 1.7-0.1 3-0.50625 3-0.90625 0-0.5 0.78125-0.79375 1.7812-0.59375 2.4 0.4 6.7062 3.4812 5.9062 4.2812-0.4 0.4-1.2938 0.2-2.0938-0.5-0.7-0.6-3.8188-1.1-6.7188-1-7.7 0.2-14.088-0.975-16.188-2.875-2.2-2-13.794-2.2125-16.094-0.3125-1 0.8-1.5938 0.8938-2.0938 0.0937-0.8-1.2-5.5062-1.2938-7.4062-0.0937-0.8 0.5-1.1125 1.6-0.8125 2.5 0.5 1.3-0.18125 1.5938-4.2812 1.5938-3.8 0-5-0.4-5-1.5 0-0.8 0.69375-1.5 1.5938-1.5 2.6 0 5.3812-2.0062 4.7812-3.4062-0.4-1.1-2.475-1.3-9.375-1-5.3 0.2-9.1 6e-3 -9.5-0.59375-0.3-0.6 0.075-1.0938 0.875-1.0938 0.9-0.1 2.125-0.30625 2.625-0.40625 0.6-0.1 1.3812-0.30625 1.7812-0.40625 0.5 0 0.90625-0.79375 0.90625-1.5938s-0.40625-1.5-0.90625-1.5c-0.4 0-0.78125-0.9-0.78125-2 0-1.2031 0.84422-1.8976 2.125-2zm-347.25 1c-0.5 0-0.875 0.4-0.875 1 0 0.5 0.69375 1 1.5938 1 0.8 0 1.2062-0.5 0.90625-1-0.3-0.6-1.025-1-1.625-1zm491.34 1.1562c0.0896-9e-3 0.16602-0.0132 0.25 0 0.40313 0.0633 0.75 0.375 1.125 0.9375 0.8 1.3-1.3 2.9062-4 2.9062-1.9 0-1.9-6e-3 0-1.9062 1.2031-1.2578 1.9976-1.8726 2.625-1.9375zm-81.938 0.9375c-0.66094 0.0603-1.4 0.325-2.1875 0.8125-1 0.7-0.8 1.2 1 2.5 2.6 1.7 4.5938 0.6875 3.5938-1.8125-0.4375-1.125-1.3047-1.6006-2.4062-1.5zm19.969 0.59375c1.4551 6e-3 2.75 0.71875 2.75 1.9062 0 0.9-1.2 1.4062-3.5 1.4062-3.9 0-4.3125-0.7-1.8125-2.5 0.75-0.5625 1.6894-0.81602 2.5625-0.8125zm-91.688 0.25c1.3362 0.0236 2.4375 0.5125 2.4375 1.5625 0 0.8-0.60625 1.5-1.4062 1.5s-1.6 0.7-2 1.5c-0.6 1.7-3.1938 2-4.0938 0.5-0.3-0.5-0.1-1.9 0.5-3 0.73125-1.35 2.8445-2.0928 4.5625-2.0625zm175.12 3.4375c0.8125 0.0125 1.3125 0.29375 1.3125 0.84375 0 0.4-1.5188 0.7875-3.2188 0.6875-2.6 0-2.8812-0.2125-1.2812-0.8125 1.25-0.5 2.375-0.73125 3.1875-0.71875zm-185.28 1.7812c1.0029-0.0293 1.7812 0.40625 2.5938 1.3438 1.6 1.9 0.3875 3.5938-2.3125 3.0938-1.2-0.3-2.5062-0.5-2.9062-0.5-1.3-0.1-0.9-2.875 0.5-3.375 0.825-0.3375 1.5232-0.54492 2.125-0.5625zm-439.16 0.9375c0.175 0 0.33125 0.2625 0.53125 0.8125 0.2 0.7 0.1125 1.5125-0.1875 1.8125-1 1-1.9-0.5125-1-1.8125 0.3-0.55 0.48125-0.8125 0.65625-0.8125zm557.44 0.375c1.8125-0.0375 4.5625 0.4375 8.3125 1.4375 3.1 0.8 2.5812 0.9-3.7188 1-4 0.1-7.2812-0.3125-7.2812-0.8125 0-1.05 0.875-1.5875 2.6875-1.625zm-526.09 0.53125c1.4 0 2.3062 0.4 1.9062 1-0.3 0.5-1.525 1-2.625 1-1 0-1.875-0.5-1.875-1 0-0.6 1.1938-1 2.5938-1zm24.781 0.1875c0.55 0 0.475 0.2625 0.125 0.8125-0.3 0.5-2.1125 0.90625-3.8125 0.90625l-3.1875-0.0937 3-0.8125c2.15-0.55 3.325-0.8125 3.875-0.8125zm529.47 0.84375c0.70898 9e-3 1.6062 0.1875 2.6562 0.5625 1.3 0.5 1.3812 0.8 0.28125 1.5-2.1 1.4-4.7812 1.0062-4.7812-0.59375 0-1 0.66211-1.4844 1.8438-1.4688zm-130 0.375c0.0846 0.01 0.175 0.0501 0.25 0.0937 0.5 0.4 0.90625 1.4 0.90625 2.5 0 2-2.6 3.5-3.5 2-0.7-1.1375 0.87969-4.2672 2.0938-4.5625 0.0867-0.0211 0.16543-0.0412 0.25-0.0313zm-475.09 0.65625c0.7625 0.0375 1.4 0.38125 1.75 1.0312 1 1.5 0.3875 1.8188-2.8125 1.2188-2.1-0.4-2.5-0.80625-1.5-1.4062 0.9-0.6 1.8-0.88125 2.5625-0.84375zm139.31 0.375c0.91738 7e-3 2.1375 2.5125 1.4375 3.5625-0.3 0.6-1.025 1-1.625 1-1 0-1.1875-3.3062-0.1875-4.4062 0.1125-0.1125 0.24395-0.15723 0.375-0.15625zm-101.34 0.0313c0.16406 0.0141 0.31875 0.05 0.46875 0.125 0.6 0.4 0.6062 1.0188-0.0937 1.7188-1.3 1.3-2.5938 0.28125-1.5938-1.2188 0.225-0.45 0.72656-0.66719 1.2188-0.625zm-26.594 1.9062c0.33496-0.085 0.71875 0.0937 1.1562 0.53125 0.6 0.6 0.80625 1.2875 0.40625 1.6875-0.9 0.9-2.7938-0.58125-2.0938-1.7812 0.15-0.225 0.33027-0.38652 0.53125-0.4375zm9.125 0.65625c0.41631 0.012 0.75 0.45625 0.75 1.375 0 1.7 4.075 2.8938 5.375 1.5938 1.4-1.4 6.925-1.3062 6.125 0.0937-0.4 0.5-1.2125 0.825-1.8125 0.625-0.7-0.2-1.8 0.2-2.5 1-1.2 1.1-4.0875 1.5-10.688 1.5-4 0-5.5-0.31875-5.5-1.2188 0-0.6 1.3938-1 3.0938-1 2.2 0 3.1938-0.5 3.5938-2 0.3375-1.2938 1.0272-1.9841 1.5625-1.9688zm506.31 2.0625c0.14531-8e-3 0.33125 0.05 0.53125 0.125 0.7 0.2 1.4875 0.9875 1.6875 1.6875 0.3 0.8-0.10625 1.2062-0.90625 0.90625-0.7-0.2-1.4875-1.0188-1.6875-1.7188-0.225-0.6-0.0609-0.97656 0.375-1zm-529.19 0.90625c1.4 0 2.625 0.20625 2.625 0.40625 0 0.9-4.025 1.3-4.625 0.5-0.3-0.5 0.6-0.90625 2-0.90625zm130.84 0.1875c0.3 0 0.71875 0.375 1.4688 1.125 1.6 1.6 1.6125 1.7938-0.1875 3.0938s-2.0125 1.3-2.3125 0c-0.2-0.8-0.0875-2.1938 0.3125-3.0938 0.25-0.75 0.41875-1.125 0.71875-1.125zm98.219 1.4375c0.32813 0.0141 0.70625 0.0875 1.1562 0.1875 1.9 0.3 2.1875 0.68125 1.1875 1.2812-2 1.3-3.7812 1.1-3.7812-0.5 0-0.675 0.45313-1.0109 1.4375-0.96875zm-186.81 0.78125c0.11719-9e-3 0.25 0.0187 0.375 0.0937 0.6 0.3 1 1.5 1 2.5s-0.7 2.5062-1.5 3.4062c-0.8 0.8-1.5 1.9938-1.5 2.5938s-0.5 0.8-1 0.5c-0.6-0.4-0.8-1-0.5-1.5s-0.6-1.1938-2-1.5938c-1.6-0.4-2.5-1.2938-2.5-2.5938 0-1.8 0.4-1.9062 3.5-1.4062 2.8 0.6 3.5 0.39375 3.5-0.90625 0-0.675 0.27344-1.0656 0.625-1.0938zm-71.938 1.8438c-0.8625-0.05-1.7 0.35-2 1.25-0.5 1.1 6e-3 1.5 1.9062 1.5 1.6 0 2.3875-0.48125 2.1875-1.2812-0.35-0.9-1.2312-1.4188-2.0938-1.4688zm174.97 2.9375c0.43237-0.0832 1.2312 0.24375 2.7188 0.8125 3.1 1.1 3.425 3 0.625 3-1.1 0-2 0.4-2 1 0 2.5-1.5188 0.7-1.7188-2-0.1125-1.9125-0.18091-2.7055 0.375-2.8125zm419.94 0.3125c0.69824 0.0439 1.4062 0.65625 1.4062 1.5938 0 1.2-4.7 1.2062-5.5-0.0937-0.3-0.5-0.0187-0.70625 0.78125-0.40625 0.8 0.3 1.8188 0 2.2188-0.5 0.2625-0.45 0.6748-0.62012 1.0938-0.59375zm-10.312 0.5937c0.4 0 1.0125 0.60625 1.3125 1.4062 0.4 0.8 1.5 1.5 2.5 1.5 2.5 0 2.5 3.1188 0 5.2188-1.3 1.1-1.8062 2.3875-1.4062 3.6875 0.4 1.5 0.10625 2.0938-1.0938 2.0938-0.9 0-1.5938-0.80625-1.5938-1.9062 0-2.7-1.0188-5.0938-2.2188-5.0938-0.5 0-1.7812 1.0188-2.7812 2.2188-1.6 2.1-1.8062 2.1-3.4062 0.5-2-1.9-3.3125-2.2188-3.8125-0.71875-0.2 0.6-2.2 1.2938-4.5 1.5938-3.6 0.4-4.1875 0.20625-3.6875-1.0938 0.6-1.4 1.7875-1.8938 3.6875-1.5938 0.4 0.1 1.0125-0.60625 1.3125-1.4062 0.4-0.8 1.5-1.5 2.5-1.5s2.8062-0.78125 3.9062-1.7812c1.7-1.4 3.8812-2.225 9.2812-3.125zm19.031 3.3125c0.7875-0.0234 1.6875 0.7125 1.6875 1.6875 0 0.5-0.7 0.90625-1.5 0.90625-1.5 0-2.0062-1.1812-0.90625-2.2812 0.2-0.2 0.45625-0.30469 0.71875-0.3125zm-486.81 0.59375c0.8 0 1.5 0.4 1.5 1 0 0.5-0.7 1-1.5 1s-1.5-0.5-1.5-1c0-0.6 0.7-1 1.5-1zm-50.25 1.0312c0.15 0 0.2375 0.43125 0.4375 1.2812 0.3 1 0.2062 2.1062-0.0937 2.4062-1.1 1.1-1.8938-0.60625-1.0938-2.4062 0.4-0.85 0.6-1.2812 0.75-1.2812zm100.5 2.5625c1.6543-0.22695 2.325 1.1875 1.625 3.8125-0.7 3.1-1.3938 3.1875-3.5938 0.6875-1.7-2-1.2812-3.4812 1.2188-4.2812 0.275-0.1 0.51367-0.18633 0.75-0.21875zm389.69 0.40625c0.69258-8e-3 1.7688 0.18125 3.3438 0.59375 3 0.8 2.8188 3.4062-0.28125 3.4062-1.4 0-2.9-0.8-3.5-2-0.75-1.375-0.7168-1.9873 0.4375-2zm-438.84 1c0.8 0 1.2062 0.4 0.90625 1-0.3 0.5-1.025 1-1.625 1-0.5 0-0.875-0.5-0.875-1 0-0.6 0.69375-1 1.5938-1zm-4.125 5.5625c0.82031-0.12012 1.5312 0.40625 1.5312 1.5312 0 0.5-1.025 0.90625-2.125 0.90625-1.8 0-1.875-0.2-0.875-1.5 0.45-0.5625 0.97656-0.86543 1.4688-0.9375zm492.59 2.0625c1.5938-0.10312 1.7688 0.65 0.71875 2.375-0.9 1.5-0.9938 2.1938-0.0937 3.0938 1.8 1.8-0.40625 6.8-3.4062 7.5-3.4 0.9-5.5-1.2938-3-3.0938 1.4-1 1.8-2.3938 1.5-5.0938-0.2-3.4 0.0187-3.9062 2.2188-4.4062 0.85-0.225 1.5312-0.34063 2.0625-0.375zm-544.03 0.5c0.21094-0.0141 0.6125 0.15 1.0625 0.375 0.6 0.4 0.8 1.3 0.5 2-0.2 0.7 0.4 2.3938 1.5 3.5938 2.4 2.8 2.1 4.1-1.5 5l-2.7188 0.8125 0.5-5.6875c0.3-3.1 0.5-5.8 0.5-6 0.025-0.05 0.0859-0.0892 0.15625-0.0937zm322.53 3.3125c0.16406-0.0313 0.3125-0.0125 0.4375 0.0625 0.6 0.4 0.48125 1.4-0.21875 2.5-1.6 2.4-3.0812 1.5062-1.7812-1.0938 0.45-0.825 1.0703-1.375 1.5625-1.4688zm-99.969 8.5625c0.2 0 0.40625 0.7 0.40625 1.5s-0.725 1.5-1.625 1.5c-1.4 0-1.375-0.3-0.375-1.5 0.7-0.8 1.3938-1.5 1.5938-1.5zm39.281 3c1.1 0 2.325 0.4 2.625 1 0.4 0.6-0.50625 1-1.9062 1s-2.5938-0.5-2.5938-1c0-0.6 0.875-1 1.875-1zm58.656 3.0625c0.13125-0.0187 0.29375-0.0187 0.46875 0.0313 0.6 0.3 1.0938 0.81875 1.0938 1.2188-0.1 1.2-1.5062 0.89375-1.9062-0.40625-0.225-0.45-0.05-0.7875 0.34375-0.84375zm-323.38 14.625c0.5625 0.0625 1.1312 0.58125 1.5312 1.5312 0.7 1.9-1.8125 3.8188-2.8125 2.2188-0.4-0.6-0.4875-1.7-0.1875-2.5 0.35-0.9 0.90625-1.3125 1.4688-1.25zm528.66 9.375c0.5625-0.0625 1.1188 0.35 1.4688 1.25 0.3 0.8 0.2125 1.9-0.1875 2.5-1 1.6-3.5125-0.31875-2.8125-2.2188 0.4-0.95 0.96875-1.4688 1.5312-1.5312zm-198.72 1.9375c0.5 0 0.90625 0.4 0.90625 1 0 0.5-0.725 1-1.625 1-0.8 0-1.175-0.5-0.875-1 0.3-0.6 0.99375-1 1.5938-1zm-12.781 5.5c1.3207 0.062 1.5047 1.0672 0.96875 3.5938-0.4 2.1-0.0875 3.4 0.8125 4 1.1 0.6 1.0875 1.1 0.1875 2-0.6 0.6-0.89375 1.8-0.59375 2.5 0.3 0.8-0.0937 1.4062-1.0938 1.4062-0.9 0-1.5938-0.69375-1.5938-1.5938 0-0.8-0.525-1.2125-1.125-0.8125-0.8 0.4-0.875-0.0937-0.375-1.5938 0.5-1.5 0.175-2.5938-0.625-3.0938-1.1-0.8-1-1.2062 0.5-2.4062 1.1-0.8 1.4125-1.5 0.8125-1.5-1.9 0-1.4062-1.7812 0.59375-2.2812 0.3375-0.075 0.63555-0.15566 0.90625-0.1875 0.23687-0.0279 0.43633-0.04 0.625-0.0313zm166.09 10.875c0.3375 0.025 0.73125 0.3375 1.2812 0.9375 0.9 0.8 1.3875 1.9938 1.1875 2.5938-0.3 0.8-0.98125 0.8125-2.2812-0.1875-1.2-0.8-1.5938-1.925-1.0938-2.625 0.3-0.5 0.56875-0.74375 0.90625-0.71875zm5.75 0.125c0.33281 0.0703 1.1125 0.9625 1.9375 2.3125 1.8 2.7 1.8812 3.4812 0.78125 4.7812-1.1 1.4-1.2875 1.4062-2.1875-0.0937-0.5-1-0.3875-2.1 0.3125-3s0.8-1.5 0-2c-0.5-0.3-1-1.1812-1-1.7812 0-0.175 0.0453-0.24219 0.15625-0.21875zm8.4688 1.0938c0.87402-0.0996 1.5 0.4375 0.875 1.5-0.4 0.5-1.3188 0.90625-2.2188 0.90625-1.3 0-1.2812-0.3-0.28125-1.5 0.4875-0.5625 1.1006-0.84648 1.625-0.90625zm-181.84 2.5c1-0.1 1 0.2 0 1.5-0.7 0.8-2 2.325-3 3.125-1.6 1.6-1.3938 4.2812 0.40625 4.2812 0.5 0 0.70625-0.40625 0.40625-0.90625-0.3-0.4 0.10625-1.6875 0.90625-2.6875 1-1.4 1.7-1.6125 2.5-0.8125 1.1 1.1 0.39375 4.4062-0.90625 4.4062-0.4 0-0.69375 1.2188-0.59375 2.7188 0.1 1.6-0.0188 2-0.21875 1-0.5-2.1-1.2812-2.1062-3.7812-0.40625-2 1.5-1.2062 4.1812 1.0938 3.2812 0.7-0.3 1.6062-0.0937 1.9062 0.40625 0.4 0.6 0.19375 1-0.40625 1s-0.80625 1.9-0.40625 5c0.3 2.7 0.2125 5-0.1875 5-1.7 0-4.3125-3.1938-3.8125-4.5938 0.7-1.8-2.3-2.9938-4-1.5938-1.5 1.3-4.0125-0.0187-4.3125-2.2188-0.2-1.2 0.125-1.275 1.625-0.375 3.2 2 4.575 0.39375 4.875-5.4062 0.3-8 0.6-9.1062 2.5-9.4062 1-0.1 2.1062-0.6 2.4062-1 0.4-0.4-0.1-0.3938-1-0.0937-1 0.4-1.7812 0.1875-1.7812-0.3125 0-0.8 2.1812-1.5062 5.7812-1.9062zm178.09 4.9062c0.6 0 1.325 0.4 1.625 1 0.3 0.5-0.10625 1-0.90625 1-0.9 0-1.5938-0.5-1.5938-1 0-0.6 0.375-1 0.875-1zm27.062 1.0938c-0.675 0.0625-1.6438 0.775-2.8438 2.125-1.1 1.1-1.8 2.475-1.5 2.875 0.8 1.4 5.4062-1.2812 5.4062-3.2812 0-1.2-0.3875-1.7812-1.0625-1.7188zm-491.56 2.375c1.6399-0.1498 4.5938 0.9875 5 2.125 0.6 1.6-2.9938 3.5188-5.0938 2.7188-1.3-0.5-1.7812-3.5-0.78125-4.5 0.1875-0.1875 0.49656-0.30918 0.875-0.34375zm428.5 1.5625c0.55131 0.0229 1.0781 0.5 1.4062 1.375 0.4 1-6e-3 1.2062-1.4062 0.90625-1-0.3-1.5812-0.90625-1.2812-1.4062 0.3-0.4875 0.65391-0.77285 1.0312-0.84375 0.0786-0.0148 0.17124-0.0344 0.25-0.0313zm17.719 2.375c0.12188-0.0266 0.25625-6e-3 0.40625 0.0937 0.5 0.3 0.68125 1.2 0.28125 2-0.7 2.1-1.2812 1.9062-1.2812-0.59375 0-0.825 0.22812-1.4203 0.59375-1.5zm16.5 2.5938c1.1 0 1.7062 0.4 1.4062 1-0.3 0.5-1.325 1-2.125 1s-1.375-0.5-1.375-1c0-0.6 0.89375-1 2.0938-1zm6.2812 0.0313c0.75-0.1 1.6 0.175 2 0.875 0.4 0.5 0.3 1.6 0 2.5-0.5 1.3-0.9 1.4-2 0.5-0.8-0.6-1.375-1.8-1.375-2.5 0-0.8 0.625-1.275 1.375-1.375zm-5.7188 7c0.13535-0.0281 0.27813-0.0219 0.40625 0 0.5125 0.0875 0.9375 0.575 0.9375 1.375s-0.5 1.7938-1 2.0938c-1.4 0.8-5-0.3875-5-1.6875 0-0.5 0.7-0.8 1.5-0.5 0.8 0.4 1.7 0.1875 2-0.3125 0.3375-0.5625 0.7502-0.88437 1.1562-0.96875zm-18.469 0.28125c0.6125 0.025 1.2 0.50625 1.5 1.4062 0.2 0.6-0.4125 1.2875-1.3125 1.6875-2.1 0.8-2.5812 0.2875-1.7812-1.8125 0.35-0.9 0.98125-1.3062 1.5938-1.2812zm-180.09 0.6875c0.6 0 0.89375 0.60625 0.59375 1.4062s-0.3062 1.6938 0.0937 2.0938c0.3 0.3 0.7125 1.7 0.8125 3 0.1 2-0.2125 2.3062-1.3125 1.4062-1.6-1.4-1.7875-7.9062-0.1875-7.9062zm128.5 0c0.2 0 0.40625 0.7 0.40625 1.5s-0.725 1.5-1.625 1.5c-1.4 0-1.375-0.3-0.375-1.5 0.7-0.8 1.3938-1.5 1.5938-1.5zm-118.78 0.9062c0.60645 0.0606 1.0625 0.875 0.6875 2-0.4 1.3-6e-3 2.3062 1.0938 2.9062 1.2 0.7 1.5062 1.6938 0.90625 4.0938-0.4 1.8-1.2125 3.0125-1.8125 2.8125-1.2-0.4-2.8-9.5-2-11 0.3375-0.6 0.76113-0.84883 1.125-0.8125zm176.19 4.0938c0.6 0 0.975 0.61875 0.875 1.2188 0 0.7-0.375 2.1812-0.875 3.2812-0.7 1.7-0.90625 1.5188-0.90625-1.2812-0.1-1.7 0.40625-3.2188 0.90625-3.2188zm-72.125 15.062c0.4875-0.1125 1.0562 0.49375 1.4062 1.8438 0.3 1.2-0.10625 2.2-0.90625 2.5-1 0.4-1.375-0.20625-1.375-1.9062 0-1.5 0.3875-2.325 0.875-2.4375zm8 3.9375c0.6 0 1.325 0.4 1.625 1 0.3 0.5-0.10625 1-0.90625 1-0.9 0-1.5938-0.5-1.5938-1 0-0.6 0.375-1 0.875-1z" fill="#f00"/>
 </g>
</svg>
